<?xml version="1.0" encoding="utf-8"?>
<!-- Generator: Adobe Illustrator 24.0.0, SVG Export Plug-In . SVG Version: 6.00 Build 0)  -->
<svg version="1.1" id="Layer_1" xmlns="http://www.w3.org/2000/svg" xmlns:xlink="http://www.w3.org/1999/xlink" x="0px" y="0px"
	 viewBox="0 0 400 400" style="enable-background:new 0 0 400 400;" xml:space="preserve">
<g id="svg_18" transform="matrix(4.340277446640869,0,0,4.340277446640869,0,0) ">
	<path id="svg_13" d="M73.8,54.2C73.8,54.1,73.8,54.1,73.8,54.2l1.1-6.9c0.2-0.7,0.2-1.4,0.1-2.1l-2.2-13c-0.1-0.4-0.2-0.7-0.4-1
		c-0.6-1.1-1.8-1.7-3.1-1.5c-2.7,0.4-4.6,3-4.2,5.7L66,40l-7.7-13.3c-1-1.9-3.4-2.7-5.4-1.7c-0.7,0.3-1.3,0.9-1.6,1.6L51,26.1
		c-1.1-1.9-3.5-2.6-5.4-1.5c-1.5,0.8-2.3,2.6-1.9,4.2c-0.9-0.1-1.7,0.2-2.5,0.6c-1.8,1.2-2.3,3.6-1.2,5.5l1.2,2l0,0
		c-0.8,0-1.5,0.2-2.2,0.6c-1,0.6-1.6,1.7-1.7,2.8L31,36.7c-1.9-1.1-4.3-0.6-5.5,1.2c-0.4,0.6-0.6,1.4-0.6,2.2l-0.5-0.3
		c-1-0.5-2.1-0.7-3.1-0.4c-1.1,0.3-1.9,1-2.4,2c-0.7,1.4-0.5,3.2,0.6,4.4c-0.8,0.4-1.4,1-1.8,1.8c-0.9,2-0.2,4.3,1.7,5.4l2.1,1.2
		c-0.7,0.4-1.2,1-1.6,1.6c-1,2-0.2,4.3,1.7,5.4l20.3,11.7c0.9,0.5,1.9,0.7,3,0.6c1.5,0,3-0.3,4.3-1.1l3.7,2.1c0.3,0.2,0.6,0.3,1,0.3
		c0.7,0,1.4-0.4,1.7-1l2.4-4.2l0.3,0.5c0.6,1,1.8,1.3,2.7,0.7l0,0l13-7.5l0,0c1-0.6,1.3-1.8,0.7-2.7L72.6,57c0.6-0.9,1-1.9,1.3-3
		L73.8,54.2L73.8,54.2z M59.9,69.5l-1.2-2l0,0L57.9,66l6.5-3.7l6.5-3.8l2,3.5L59.9,69.5L59.9,69.5z M73,46.8L73,46.8l-1.1,6.9v0.1
		c-0.2,0.7-0.6,2.2-1.1,2.5L56,64.7l0,0c-1,0-2-0.2-2.9-0.8l0,0l0,0c-0.6-0.3-1.1-0.6-1.5-1.1l0,0c-0.1-0.1-0.2-0.2-0.3-0.3l0,0
		L48,56.9l-8.5-14.8c-0.6-0.9-0.3-2.2,0.6-2.8c0.9-0.6,2.2-0.3,2.8,0.6c0,0,0,0.1,0.1,0.1l4,6.9c0.3,0.5,0.9,0.6,1.4,0.4
		c0.5-0.3,0.6-0.9,0.4-1.4l0,0l-4-6.9l-3.1-5c-0.6-0.9-0.3-2.2,0.6-2.8c0.9-0.6,2.2-0.3,2.8,0.6c0,0,0,0.1,0.1,0.1l7,12.1
		c0.3,0.5,0.9,0.6,1.4,0.4c0.5-0.3,0.6-0.9,0.4-1.4l0,0l-7-12.1l0,0l-0.9-1.6c-0.6-0.9-0.3-2.2,0.6-2.8c0.9-0.6,2.2-0.3,2.8,0.6
		c0,0,0,0.1,0.1,0.1l2,3.5l0,0l6,10.4c0.3,0.5,0.9,0.6,1.4,0.4s0.6-0.9,0.4-1.4l-6-10.4l0,0c-0.6-1-0.2-2.2,0.7-2.7h0.1
		c1-0.5,2.2,0,2.7,0.9L64.2,41c0.6,1,1.8,1.3,2.7,0.7c0.7-0.4,1.1-1.2,1-2l-0.7-4.6c-0.3-1.6,0.9-3.2,2.5-3.4c0.4-0.1,0.8,0.1,1,0.5
		l0,0c0.1,0.1,0.1,0.2,0.1,0.4l2.2,13C73.1,45.9,73.1,46.4,73,46.8L73,46.8z"/>
	<path id="svg_14" d="M30.2,24.1c0.2,0.5,0.8,0.7,1.3,0.4c0.5-0.2,0.7-0.8,0.4-1.3l-2-4c-0.2-0.5-0.8-0.7-1.3-0.4
		c-0.5,0.2-0.7,0.8-0.4,1.3L30.2,24.1z"/>
	<path id="svg_15" d="M21.8,25.5l3.7,2.5c0.5,0.3,1.1,0.2,1.4-0.3s0.2-1.1-0.3-1.4l-3.7-2.5c-0.5-0.3-1.1-0.2-1.4,0.3
		C21.2,24.5,21.3,25.1,21.8,25.5L21.8,25.5z"/>
	<path id="svg_16" d="M19,33.8l4.5,0.3h0.1c0.6,0,1-0.4,1-1s-0.4-1-1-1l-4.5-0.3c-0.6,0-1,0.4-1.1,0.9C18,33.3,18.5,33.8,19,33.8
		L19,33.8L19,33.8L19,33.8z"/>
	<path id="svg_17" d="M37.1,23.1c0.6,0,1-0.4,1-1v-4c0-0.6-0.4-1-1-1s-1,0.4-1,1v4C36.1,22.6,36.5,23.1,37.1,23.1z"/>
</g>
</svg>
